<svg width="95" height="130" viewBox="0 0 95 130" fill="none" xmlns="http://www.w3.org/2000/svg">
<path d="M2.92185 15.8177C3.05205 15.5 3.21351 15.1823 3.34372 14.8594C9.06768 2.62499 24.0156 -2.18751 35.9583 4.11457L49.2343 11.1094C67.1875 8.02603 85.4635 19.5989 91.4218 38.6719C93.5208 45.375 77.3229 46.5417 76.151 52.875C74.9271 59.4687 82.0052 79.5833 77.8281 84.5573C73.651 89.5312 79.3437 83.5156 74.9791 88.7864C70.4843 94.2135 56.4687 91.2604 43.8073 83.9948C39.5208 123.74 16.8593 113.365 18.0833 100.807C18.401 97.5625 20.1041 92.2708 20.9583 88.4375C22.7656 80.1406 23.0052 71.5469 21.6458 63.1667C21.3541 61.2812 20.9843 59.151 20.5833 56.7552C20.3437 55.6927 20.1562 54.6302 20.026 53.5677C20.026 53.5677 20.026 53.5677 20.026 53.5364C19.8125 51.9687 19.7031 50.401 19.6771 48.8594L13.5885 45.6927C2.78643 40.0521 -1.9219 27.0208 2.92185 15.8177Z" fill="#EAC303"/>
<path d="M13.375 46.1458L19.1979 49.151C19.2291 50.6146 19.3593 52.1042 19.5468 53.5365C19.5468 53.5677 19.5468 53.5677 19.5468 53.5938C19.6771 54.6823 19.8906 55.776 20.1041 56.8125C20.5052 59.0729 20.8489 61.2292 21.1666 63.224C22.5 71.625 22.2864 80.0885 20.4791 88.3073C20.1823 89.6615 19.7604 91.2031 19.3333 92.8281C18.5885 95.6719 17.8177 98.599 17.6041 100.729C17.0468 106.448 21.3541 111.979 26.8594 112.542C30.6927 112.938 34.4166 110.917 37.3437 106.849C40.8021 102.031 43.1406 94.6354 44.2864 84.8229C50.4583 88.2813 56.8646 90.6719 62.401 91.6302C68.651 92.6927 73.1458 91.8177 75.4323 89.0781C77.2969 86.8438 77.5104 86.4948 77.2448 86.125C77.4844 85.8333 77.8021 85.4323 78.2812 84.849C80.9114 81.7083 79.4479 73.5417 78.0416 65.6146C77.1094 60.4271 76.2344 55.5365 76.7083 52.9271C77.2135 50.2656 80.8594 48.4844 84.4271 46.7552C88.7604 44.6563 93.2291 42.5 91.9531 38.4583C86.6041 21.4323 71.3906 10.0208 55.1094 10.0208C53.1979 10.0208 51.2812 10.1823 49.3385 10.5L36.2239 3.58333C32.6875 1.71875 28.7239 0.765625 24.7604 0.765625C22.125 0.765625 19.4948 1.1875 16.9948 2.04167C10.6875 4.14063 5.68747 8.60938 2.86977 14.5938C2.70831 14.9167 2.57289 15.2344 2.41664 15.5781C-2.47919 27.0208 2.30727 40.4271 13.375 46.1458ZM3.42706 16.0313C3.55727 15.7135 3.71872 15.3958 3.85414 15.0729C6.51039 9.35417 11.3281 5.09896 17.3385 3.07813C23.375 1.05729 30.1041 1.58854 35.7448 4.56771L49.0208 11.5625C49.0989 11.6146 49.1771 11.6146 49.2604 11.6146C49.2864 11.6146 49.3125 11.6146 49.3385 11.6146C67.2135 8.55729 85.0885 20.2344 90.9166 38.8281C91.901 41.9688 88.0156 43.8542 83.9219 45.849C80.1406 47.6875 76.2344 49.5781 75.6458 52.7917C75.1406 55.5885 76.0208 60.5625 76.9791 65.8542C78.2812 73.1719 79.7708 81.4688 77.4531 84.2083C75.7552 86.2552 75.4844 86.5781 75.7812 86.974C75.5416 87.2969 75.1666 87.7448 74.5833 88.4375C70.5937 93.2552 57.6093 91.2031 44.3646 83.7031L44.4427 81.4688C45.5625 79.8229 56.3333 63.6198 53.5156 47.2344C52.0521 38.75 47.2083 31.5677 39.151 25.9531C39.0729 25.901 38.9635 25.849 38.8594 25.849C38.6979 25.849 38.5104 25.9271 38.4323 26.0885C38.2708 26.3281 38.3281 26.6719 38.5677 26.8333C46.3854 32.2865 51.0677 39.2031 52.5052 47.4219C55.375 64.151 43.6198 80.8333 43.5156 80.9896C43.4583 81.0729 43.4062 81.1771 43.4062 81.2813L43.3021 83.9688C41.0104 105.276 33.3541 112.193 26.9427 111.526C22.0208 111.021 18.1354 106.047 18.6406 100.885C18.8281 98.8385 19.5989 95.9688 20.3437 93.1458C20.7708 91.526 21.1927 89.9531 21.4896 88.5729C23.3229 80.2188 23.5625 71.6563 22.2083 63.0885C21.8854 61.0938 21.5416 58.9375 21.1406 56.651C20.9271 55.6146 20.7448 54.5521 20.5833 53.4844C20.3698 51.9688 20.2656 50.401 20.2396 48.8594C20.2396 48.6719 20.1302 48.4844 19.9427 48.4063L13.8541 45.2396C3.29164 39.7344 -1.28128 26.9115 3.42706 16.0313Z" fill="#231F20"/>
<path d="M62.0521 25.0521C64.5834 19.7291 70.9375 17.4948 76.2344 20.0208L87.1407 25.2083C92.4584 27.7344 94.6927 34.0937 92.1667 39.3854C89.6407 44.7083 83.2813 46.9427 77.9896 44.4166L67.0834 39.2291C61.7605 36.7291 59.5261 30.3698 62.0521 25.0521Z" fill="#EAC303"/>
<mask id="mask0_215_5605" style="mask-type:luminance" maskUnits="userSpaceOnUse" x="60" y="17" width="35" height="30">
<path d="M60.3334 17.3333H94.6928V46.6666H60.3334V17.3333Z" fill="white"/>
</mask>
<g mask="url(#mask0_215_5605)">
<path d="M71.6824 18.4531C73.3074 18.4531 74.9271 18.7969 76.4688 19.5417L87.3751 24.7292C90.0626 26.0365 92.0834 28.2969 93.099 31.0885C94.0834 33.9063 93.948 36.9427 92.6459 39.625C91.3699 42.3125 89.1042 44.3594 86.2865 45.3438C83.4688 46.3594 80.4324 46.1979 77.7501 44.8958L66.8438 39.7083C61.2813 37.0469 58.9167 30.3698 61.5469 24.8125C63.4896 20.8177 67.5053 18.4531 71.6824 18.4531ZM82.5365 44.9479C83.6824 44.9479 84.823 44.7604 85.9167 44.3594C88.4688 43.4583 90.4896 41.6198 91.6615 39.1771C92.8282 36.7292 92.9636 33.9896 92.0574 31.4323C91.1563 28.8802 89.3178 26.8594 86.8699 25.6875L75.9636 20.5C70.9376 18.1094 64.8751 20.2344 62.4792 25.2917C60.0834 30.3177 62.2136 36.3802 67.2657 38.776L78.1719 43.9635C79.5834 44.6302 81.073 44.9479 82.5365 44.9479Z" fill="#231F20"/>
</g>
<path d="M59.875 39.8385C62.401 34.5208 68.7552 32.2864 74.0521 34.8125L84.9583 40C90.276 42.526 92.5104 48.8854 89.9844 54.1771C87.4583 59.5 81.0989 61.7344 75.8073 59.2031L64.901 54.0156C59.6041 51.4896 57.3437 45.1354 59.875 39.8385Z" fill="#EAC303"/>
<path d="M69.5001 33.2188C71.1511 33.2188 72.7761 33.5885 74.2917 34.3073L85.198 39.4948C87.8855 40.7969 89.9324 43.0573 90.9167 45.8802C91.9011 48.6979 91.7657 51.7292 90.4636 54.4167C87.8021 59.974 81.1251 62.3438 75.5678 59.7083L64.6615 54.5208C61.974 53.2448 59.9271 50.9844 58.9428 48.1667C57.9584 45.3437 58.0886 42.3125 59.3959 39.625C60.6719 36.9427 62.9324 34.8906 65.7501 33.9063C66.974 33.4531 68.224 33.2188 69.5001 33.2188ZM80.3803 59.7083C84.1563 59.7083 87.8021 57.5833 89.5313 53.9375C91.9271 48.9115 89.7969 42.8437 84.7449 40.4531L73.8386 35.2656C68.8126 32.8698 62.7449 35 60.349 40.0521C59.1824 42.5 59.0469 45.2396 59.9532 47.7917C60.8542 50.349 62.6928 52.3698 65.1407 53.5365L76.0469 58.724C77.4271 59.3906 78.9167 59.7083 80.3803 59.7083Z" fill="#231F20"/>
<path d="M56.948 55.4271C59.474 50.1094 65.8334 47.875 71.1251 50.4011L82.0313 55.5886C87.349 58.1406 89.5834 64.474 87.0574 69.7917C84.5313 75.1146 78.1719 77.349 72.8803 74.8177L61.974 69.6302C56.6563 67.1042 54.4219 60.75 56.948 55.4271Z" fill="#EAC303"/>
<path d="M66.5782 48.8281C68.198 48.8281 69.823 49.1771 71.3646 49.9219L82.2709 55.1094C84.9584 56.3854 87.0053 58.6458 87.9896 61.4635C88.974 64.2865 88.8386 67.3177 87.5365 70.0052C86.2605 72.6927 84.0001 74.7396 81.1771 75.724C78.3594 76.7344 75.3282 76.5729 72.6407 75.2708L61.7344 70.0833C59.0469 68.8073 57.0001 66.5469 56.0157 63.7292C55.0313 60.9063 55.1667 57.875 56.4688 55.1875C58.3803 51.1979 62.4011 48.8281 66.5782 48.8281ZM77.4271 75.3229C81.2084 75.3229 84.849 73.1979 86.5782 69.5521C87.7501 67.1042 87.8855 64.3646 86.9792 61.8125C86.073 59.2604 84.2396 57.2344 81.7917 56.0677L70.8855 50.8802C65.8594 48.4844 59.7917 50.6146 57.4011 55.6667C56.2292 58.1146 56.0938 60.8542 57.0001 63.4063C57.9063 65.9635 59.7396 67.9844 62.1876 69.151L73.0938 74.3385C74.5053 75.0052 75.9948 75.3229 77.4271 75.3229Z" fill="#231F20"/>
<path d="M51.5209 71.0417C54.0469 65.7239 60.4063 63.4896 65.698 66.0156L76.6042 71.2031C81.9219 73.7292 84.1563 80.0885 81.6303 85.3802C79.1042 90.6979 72.7448 92.9323 67.4532 90.4062L56.5469 85.2187C51.2553 82.6927 48.9948 76.3333 51.5209 71.0417Z" fill="#EAC303"/>
<path d="M61.151 64.4427C62.7968 64.4427 64.4218 64.8177 65.9375 65.5364L76.8437 70.7239C82.401 73.3854 84.7708 80.0573 82.1354 85.6198C80.8594 88.3073 78.5989 90.3541 75.7812 91.3385C72.9583 92.3229 69.9271 92.1875 67.2396 90.8854L56.3333 85.6979C53.6458 84.4219 51.5989 82.1614 50.6146 79.3437C49.6302 76.5208 49.7656 73.4896 51.0677 70.8021C52.3437 68.1146 54.6041 66.0677 57.4271 65.0833C58.6198 64.6562 59.901 64.4427 61.151 64.4427ZM72.0312 90.9375C73.1718 90.9375 74.3177 90.7552 75.4062 90.3541C77.9583 89.4479 79.9844 87.6146 81.151 85.1666C83.5469 80.1406 81.4166 74.0729 76.3646 71.6823L65.4583 66.4948C60.4323 64.0989 54.3646 66.2291 51.9739 71.2812C50.8021 73.7291 50.6666 76.4687 51.5729 79.0208C52.4791 81.5781 54.3125 83.5989 56.7604 84.7656L67.6666 89.9531C69.0781 90.5937 70.5416 90.9375 72.0312 90.9375Z" fill="#231F20"/>
<mask id="mask1_215_5605" style="mask-type:luminance" maskUnits="userSpaceOnUse" x="0" y="90" width="57" height="40">
<path d="M0.333252 90.6667H56.3333V129.266H0.333252V90.6667Z" fill="white"/>
</mask>
<g mask="url(#mask1_215_5605)">
<path d="M8.47912 121.104C8.47912 120.839 8.56246 120.599 8.74475 120.411L12.7604 116.234C13 115.995 13.3229 115.891 13.6406 115.969C13.8281 115.995 13.9843 116.104 14.1197 116.234C14.3072 116.422 14.4114 116.661 14.4114 116.927C14.4114 117.193 14.3333 117.432 14.1458 117.62L10.1302 121.797C9.94267 121.984 9.70308 122.089 9.43746 122.089C9.17183 122.089 8.93225 122.01 8.74475 121.823C8.5885 121.583 8.47912 121.344 8.47912 121.104ZM1.05725 107.297C0.927039 107.51 0.869748 107.776 0.953082 108.042C1.08329 108.547 1.5885 108.896 2.12496 108.76L7.76037 107.432C7.99996 107.38 8.23954 107.219 8.37496 107.005C8.50516 106.792 8.56246 106.526 8.47912 106.26C8.401 105.891 8.10933 105.594 7.73433 105.542C7.60412 105.516 7.46871 105.516 7.3385 105.542L1.69787 106.875C1.40621 106.927 1.19266 107.089 1.05725 107.297ZM2.39058 93.4948L7.86975 95.4375C8.37496 95.6198 8.93225 95.3542 9.09371 94.849C9.276 94.3438 9.01037 93.7865 8.50517 93.625L3.026 91.6823C2.97392 91.6563 2.94787 91.6563 2.89579 91.6563C2.41662 91.5781 1.9635 91.8438 1.80204 92.2969C1.61975 92.75 1.88537 93.3073 2.39058 93.4948ZM49.4739 103.656L55.2708 103.974C55.802 104 56.2552 103.599 56.2812 103.068C56.3073 102.589 55.9635 102.167 55.5104 102.057C55.4583 102.057 55.4323 102.031 55.375 102.031L49.5781 101.714C49.0468 101.688 48.5937 102.083 48.5677 102.615C48.5156 103.177 48.9375 103.63 49.4739 103.656ZM44.9479 114.802L49.6562 118.203C50.0833 118.526 50.6927 118.417 51.0156 117.99C51.1718 117.781 51.2291 117.516 51.1718 117.276C51.1198 117.01 50.9895 116.797 50.776 116.635L46.0677 113.229C45.9583 113.151 45.8281 113.099 45.6927 113.073C45.3229 112.99 44.9479 113.151 44.7083 113.443C44.552 113.656 44.4948 113.922 44.552 114.161C44.6041 114.427 44.7656 114.641 44.9479 114.802ZM37.2864 127.115C37.3958 127.354 37.552 127.542 37.7916 127.646C38.0312 127.755 38.2968 127.755 38.5364 127.646C38.776 127.542 38.9635 127.38 39.0729 127.141C39.177 126.901 39.177 126.635 39.0729 126.396L36.9427 121C36.8073 120.677 36.5416 120.464 36.2239 120.411C36.0364 120.385 35.8541 120.385 35.6927 120.464C35.4531 120.573 35.2656 120.734 35.1614 120.974C35.052 121.208 35.052 121.479 35.1614 121.719L37.2864 127.115ZM22.7916 129.083C23.3229 129.193 23.8281 128.844 23.9375 128.313L25.052 122.62C25.1562 122.089 24.8125 121.583 24.2812 121.479C23.75 121.37 23.2448 121.719 23.1354 122.25L22.0208 127.943C21.9375 128.474 22.2864 128.979 22.7916 129.083Z" fill="#231F20"/>
</g>
</svg>
